<svg xmlns="http://www.w3.org/2000/svg" width="531.66" height="166.67" viewBox="0 0 531.66 166.67"><defs><style>.cls-1{fill:#fff;}</style></defs><g id="Vrstva_2" data-name="Vrstva 2"><g id="Podkres"><path class="cls-1" d="M286.47,78.12c-1.77-1.54-4.43-2.32-8-2.32H261.56V95.59H278.5c3.54,0,6.2-.78,8-2.36s2.66-4.14,2.66-7.68S288.25,79.66,286.47,78.12Z"/><path class="cls-1" d="M262,0,186,29.54h-.21V166.67h152V29.54H338ZM232.52,134.09H217.06V63.79h15.46Zm58.68,0a27.45,27.45,0,0,1-1.58-8c-.19-3.08-.49-6-.88-8.86-.53-3.67-1.64-6.36-3.35-8.07s-4.5-2.56-8.37-2.56H261.56v27.47H246.11V63.79H284a22.61,22.61,0,0,1,8.52,1.53A19.8,19.8,0,0,1,299,69.5a18.2,18.2,0,0,1,4.13,6.16,19.75,19.75,0,0,1,1.43,7.53A21.14,21.14,0,0,1,302,93.92a16.37,16.37,0,0,1-8.52,6.89v.2a11.89,11.89,0,0,1,4.73,2.41,13.28,13.28,0,0,1,3.05,3.84,17.8,17.8,0,0,1,1.72,4.87,42.51,42.51,0,0,1,.74,5.32c.07,1.12.13,2.43.2,3.94s.18,3,.35,4.63a30.6,30.6,0,0,0,.78,4.47,10.2,10.2,0,0,0,1.63,3.6Z"/><path class="cls-1" d="M414,63.79v13H376.89V91.85H411v12H376.89v17.23H414.8v13H361.43V63.79Z"/><path class="cls-1" d="M459.89,127.59a14.43,14.43,0,0,1-6.45,6,23.53,23.53,0,0,1-19.05-.4,20,20,0,0,1-7.14-6,27.21,27.21,0,0,1-4.23-8.72,36.59,36.59,0,0,1-1.43-10.23A34.4,34.4,0,0,1,423,98.3a25.75,25.75,0,0,1,4.23-8.42,20.53,20.53,0,0,1,16.89-8.07,20,20,0,0,1,8.61,1.92,15,15,0,0,1,6.45,5.66h.2V63.79h14v70.3H460.09v-6.5Zm-.59-25.15a14.68,14.68,0,0,0-2-5.12,11.34,11.34,0,0,0-3.69-3.6,10.83,10.83,0,0,0-5.71-1.38,11.33,11.33,0,0,0-5.81,1.38,10.93,10.93,0,0,0-3.79,3.64,16.39,16.39,0,0,0-2.07,5.17,27.93,27.93,0,0,0-.64,6.06,25.91,25.91,0,0,0,.69,5.91,16,16,0,0,0,2.22,5.26,12,12,0,0,0,3.84,3.74,10.29,10.29,0,0,0,5.56,1.43,11.12,11.12,0,0,0,5.76-1.38,10.36,10.36,0,0,0,3.69-3.69,16.42,16.42,0,0,0,2-5.27,31.24,31.24,0,0,0,.59-6.1A30.51,30.51,0,0,0,459.3,102.44Z"/><path class="cls-1" d="M518.37,134.09V127h-.29a15.75,15.75,0,0,1-6.9,6.4,20.37,20.37,0,0,1-8.66,2,24.39,24.39,0,0,1-9.21-1.48,13.32,13.32,0,0,1-5.66-4.18,16.59,16.59,0,0,1-2.9-6.6,40.82,40.82,0,0,1-.84-8.61V83.19h14v28.75q0,6.3,2,9.4t7,3.1q5.72,0,8.27-3.4t2.56-11.17V83.19h14v50.9Z"/><path class="cls-1" d="M15.46,63.79v57.3H49.72v13H0V63.79Z"/><path class="cls-1" d="M56.32,98.84a16.13,16.13,0,0,1,2.46-8.17,16.77,16.77,0,0,1,5.51-5.22,23.86,23.86,0,0,1,7.53-2.8,42.71,42.71,0,0,1,8.42-.84,57.28,57.28,0,0,1,7.78.54,23.87,23.87,0,0,1,7.19,2.12,14.2,14.2,0,0,1,5.31,4.38,12.23,12.23,0,0,1,2.07,7.43v26.49a53.68,53.68,0,0,0,.39,6.59,12.18,12.18,0,0,0,1.38,4.73H90.18a21.91,21.91,0,0,1-.64-2.41,20.76,20.76,0,0,1-.34-2.51A18.29,18.29,0,0,1,81.32,134a31.55,31.55,0,0,1-9.25,1.38,25,25,0,0,1-6.79-.89,15.64,15.64,0,0,1-5.52-2.75A13,13,0,0,1,56.07,127a15.91,15.91,0,0,1-1.33-6.79,14.81,14.81,0,0,1,1.53-7.14,12.72,12.72,0,0,1,3.94-4.48,17.47,17.47,0,0,1,5.51-2.51A58.91,58.91,0,0,1,72,104.75q3.15-.5,6.2-.79a36.91,36.91,0,0,0,5.42-.89,9.35,9.35,0,0,0,3.74-1.72,3.79,3.79,0,0,0,1.28-3.3,7.44,7.44,0,0,0-.74-3.59,5.45,5.45,0,0,0-2-2.07,7.7,7.7,0,0,0-2.85-1,22.69,22.69,0,0,0-3.5-.25,10.63,10.63,0,0,0-6.5,1.77c-1.57,1.19-2.49,3.15-2.75,5.91Zm32.29,10.34a6.25,6.25,0,0,1-2.22,1.23,22.33,22.33,0,0,1-2.85.74c-1,.2-2.09.36-3.2.49s-2.23.3-3.35.49a25.6,25.6,0,0,0-3.1.79,9.21,9.21,0,0,0-2.66,1.33,6.34,6.34,0,0,0-1.82,2.12,6.78,6.78,0,0,0-.69,3.25,6.61,6.61,0,0,0,.69,3.15,5.25,5.25,0,0,0,1.87,2,7.85,7.85,0,0,0,2.76,1,17.31,17.31,0,0,0,3.25.29,12.37,12.37,0,0,0,6.4-1.37,9.19,9.19,0,0,0,3.34-3.3,10.36,10.36,0,0,0,1.33-3.89,25.55,25.55,0,0,0,.25-3.15Z"/><path class="cls-1" d="M127.4,63.79v25.6h.2a15,15,0,0,1,6.94-5.76,23.54,23.54,0,0,1,9.1-1.82A19.34,19.34,0,0,1,158,88.21a24.53,24.53,0,0,1,4.87,8.32,34.8,34.8,0,0,1,1.87,12.06,34.8,34.8,0,0,1-1.87,12.06A24.62,24.62,0,0,1,158,129a19.44,19.44,0,0,1-14.33,6.4,26.9,26.9,0,0,1-10-1.77,12.8,12.8,0,0,1-6.69-6h-.2v6.5H113.42V63.79ZM150,102.48a16.35,16.35,0,0,0-2.16-5.21,11.52,11.52,0,0,0-3.69-3.6,11.41,11.41,0,0,0-10.69,0,11.28,11.28,0,0,0-3.74,3.6,16.13,16.13,0,0,0-2.16,5.21,27.23,27.23,0,0,0-.69,6.21,26.72,26.72,0,0,0,.69,6.1,16.09,16.09,0,0,0,2.16,5.22,11.15,11.15,0,0,0,3.74,3.59,11.41,11.41,0,0,0,10.69,0,11.38,11.38,0,0,0,3.69-3.59,16.32,16.32,0,0,0,2.16-5.22,26.72,26.72,0,0,0,.69-6.1A27.23,27.23,0,0,0,150,102.48Z"/></g></g></svg>